<svg xmlns="http://www.w3.org/2000/svg" viewBox="5.4 108.6 272.2 66.2"><path fill="#FF0078" d="M42 140.5c-.1-.1-.1-.2-.2-.2l-.2-.2c-.1-.1-.2-.1-.2-.2l-.1-.1-16.1-8.9-13.5 7.5 17 10.1 13.3-8"/><path fill="#FFF200" d="M43 140.8c0-.1 0-.2-.1-.3 0-.1 0-.2-.1-.2 0-.1-.1-.2-.1-.3 0-.1-.1-.1-.1-.2l-13.9 8.6V170l13.2-8.2c.6-.4 1-1 1-1.7.1 0 .1-19.3.1-19.3z"/><path fill="#231F20" d="M80.5 140.1c.3-.3.5-.5.7-.8.3-.4.4-.8.5-1.2.1-.5.2-.9.2-1.5 0-.8-.2-1.5-.4-2.2-.3-.7-.6-1.3-1.2-1.7-.6-.6-1.4-1.1-2.3-1.4-.8-.3-1.7-.5-2.7-.5h-10c-.4 0-.7.3-.7.7v19.7c0 .4.3.7.7.7h10.6c1 0 2-.2 2.8-.5.9-.4 1.6-.8 2.3-1.5.6-.6 1.2-1.3 1.5-2.1.4-.8.5-1.7.5-2.6 0-1.4-.4-2.6-1.1-3.6-.4-.7-.8-1.2-1.4-1.5m-4.6 7.3h-6.5v-4.7h6.7c.4 0 .7.1 1 .2.3.2.6.4.8.6.3.4.5.9.5 1.5 0 .3-.1.7-.2.9-.1.3-.2.5-.4.7-.3.2-.5.4-.9.6-.3.1-.7.2-1 .2m.9-9.5c-.1.2-.3.3-.5.4-.2.1-.3.1-.5.1h-6.4v-3.3h5.9c.6 0 1.1.2 1.5.5.3.3.5.7.5 1.2-.1.4-.2.8-.5 1.1m15-7.2h-3.5c-.4 0-.7.3-.7.7v19.7c0 .4.3.7.7.7h14.8c.4 0 .7-.3.7-.7V148c0-.4-.3-.7-.7-.7H92.4v-15.9c0-.4-.3-.7-.6-.7m32.3 2.5c-1-1-2.1-1.7-3.5-2.3-1.3-.5-2.8-.8-4.4-.8-1.7 0-3.2.3-4.6.9-1.4.6-2.6 1.4-3.6 2.5-.9 1-1.7 2.1-2.1 3.4-.5 1.3-.8 2.7-.8 4.1 0 1.4.3 2.7.8 4 .5 1.3 1.2 2.4 2.1 3.4 1 1 2.1 1.9 3.6 2.5s2.9.9 4.6.9 3.2-.3 4.5-.8c1.4-.6 2.5-1.4 3.5-2.4.9-1 1.7-2.1 2.2-3.4.5-1.3.8-2.7.8-4.2s-.3-2.9-.8-4.2c-.5-1.4-1.3-2.5-2.3-3.6m-1.6 7.8c0 .9-.2 1.8-.5 2.5s-.7 1.4-1.2 2c-.6.6-1.3 1.1-2 1.4-1.6.7-3.6.7-5.1 0-.8-.4-1.5-.8-2-1.5-.5-.6-.9-1.2-1.3-2-.3-.7-.5-1.6-.5-2.5s.2-1.8.5-2.5.7-1.4 1.3-2c.6-.6 1.3-1.1 2-1.4.8-.3 1.6-.5 2.5-.5s1.7.2 2.5.5 1.5.8 2 1.4c.5.5.9 1.2 1.3 1.9.3.9.5 1.8.5 2.7m14.1-4.4c.6-.6 1.3-1 2-1.3 1.7-.7 3.8-.6 5.3.1.7.3 2.1 1.4 2.7 1.9.2.2.4.1.6-.1l2.4-2.7c.2-.2.2-.5-.1-.6-.8-.6-2.9-2.3-3.9-2.7-1.3-.6-2.9-.8-4.6-.8-1.6 0-3.1.3-4.5.8s-2.5 1.3-3.5 2.3-1.7 2.1-2.3 3.5c-.5 1.3-.8 2.7-.8 4.2 0 1.6.3 3 .8 4.3.5 1.3 1.4 2.5 2.4 3.5s2.1 1.7 3.5 2.3c1.3.5 2.8.8 4.4.8 1.7 0 3.3-.3 4.6-.8 1-.4 3.1-2.1 3.9-2.7.2-.2.2-.4.1-.6l-2.4-2.6c-.2-.2-.4-.2-.6-.1-.6.5-2 1.6-2.7 1.8-1.6.7-3.7.8-5.4.1-.8-.3-1.5-.8-2-1.4-.5-.5-.9-1.2-1.3-1.9-.3-.8-.5-1.6-.5-2.6 0-.9.2-1.8.5-2.6.4-.8.8-1.6 1.4-2.1m36.1-5.9h-4.6c-.3 0-.6.2-.8.4l-5.1 7.2h-3.1v-6.9c0-.4-.3-.7-.7-.7H155c-.4 0-.7.3-.7.7v19.7c0 .4.3.7.7.7h3.5c.4 0 .7-.3.7-.7v-8.3h3.2l5.6 8.5c.2.3.5.4.8.4h4.5c.3 0 .4-.3.3-.5l-7.1-10.8 6.6-9.2c-.1-.2-.2-.5-.4-.5m9.3 5.9c.6-.6 1.3-1 2-1.3 1.7-.7 3.8-.6 5.3.1.7.3 2.1 1.4 2.7 1.9.2.2.4.1.6-.1l2.4-2.7c.2-.2.2-.5-.1-.6-.8-.6-2.9-2.3-3.9-2.7-1.3-.6-2.9-.8-4.6-.8-1.6 0-3.1.3-4.5.8s-2.5 1.3-3.5 2.3c-1 1-1.7 2.1-2.3 3.5-.5 1.3-.8 2.7-.8 4.2 0 1.6.3 3 .8 4.3.5 1.3 1.4 2.5 2.4 3.5s2.1 1.7 3.5 2.3c1.3.5 2.8.8 4.4.8 1.7 0 3.3-.3 4.6-.8 1-.4 3.1-2.1 3.9-2.7.2-.2.2-.4.1-.6l-2.4-2.6c-.2-.2-.4-.2-.6-.1-.6.5-2 1.6-2.7 1.8-1.6.7-3.7.8-5.4.1-.8-.3-1.5-.8-2-1.4-.5-.5-.9-1.2-1.3-1.9-.3-.8-.5-1.6-.5-2.6 0-.9.2-1.8.5-2.6.4-.8.8-1.6 1.4-2.1m31.3 1.5h-9.1v-6.9c0-.4-.3-.7-.7-.7H200c-.4 0-.7.3-.7.7v19.7c0 .4.3.7.7.7h3.5c.4 0 .7-.3.7-.7v-8.3h9.1v8.3c0 .4.3.7.7.7h3.5c.4 0 .7-.3.7-.7v-19.7c0-.4-.3-.7-.7-.7H214c-.4 0-.7.3-.7.7v6.9zm17.3-6.8l-8.9 20c-.1.2.1.4.3.4h4c.4 0 .7-.2.9-.6l1.4-3h9.7l1.4 3c.2.3.5.6.9.6h4.1c.2 0 .4-.2.3-.4l-8.9-20c-.2-.4-.5-.6-.9-.6h-3.4c-.4 0-.8.2-.9.6m5.5 12.4h-6l2.9-7.5 3.1 7.5zm12.8 8h3.4c.4 0 .7-.3.7-.7v-19.7c0-.4-.3-.7-.7-.7h-3.4c-.4 0-.7.3-.7.7V151c0 .4.3.7.7.7m24.8-6.4c.4-.2.7-.4 1-.7.5-.4.9-.8 1.3-1.3 1-1.3 1.5-2.9 1.5-4.7 0-1.2-.2-2.2-.6-3.1-.4-.9-1-1.7-1.7-2.5-.7-.7-1.6-1.3-2.6-1.7-1-.4-2-.6-3.1-.6h-9.7c-.4 0-.7.3-.7.7v19.7c0 .4.3.7.7.7h3.5c.4 0 .7-.3.7-.7v-4.7h5.1l2.9 4.9c.2.3.5.5.8.5h4.6c.2 0 .3-.2.2-.4l-3.9-6.1zm-9.8-10.1h5.5c.5 0 1 .1 1.5.3.5.2.8.5 1.1.8.6.6.8 1.3.8 2.3 0 .4-.1.8-.2 1.3-.2.4-.4.7-.7 1.1-.3.3-.6.5-.9.7-.4.2-.9.3-1.4.3h-5.7v-6.8z"/><path fill="#A42EFF" d="M26.3 149.9l-2.4.3-11.5 7.6c-1.2.7-1.1 2.4.1 3.1l11.2 6.6 2.6-17.6"/><path fill="#21DFF3" d="M11.7 138.5l13.5-7.7v-18.3c0-1.2-1.3-1.9-2.3-1.4l-11.2 6.2v21.2z"/><path fill="#231F20" d="M43.6 141c0-.1 0-.2-.1-.3 0-.1 0-.2-.1-.2 0-.1-.1-.2-.1-.3-.1-.1-.1-.2-.1-.2-.1-.1-.1-.2-.2-.2l-.2-.2c-.1-.1-.2-.1-.2-.2l-.2-.2-16.2-9v-19.9c0-.7-.4-1.3-.9-1.6-.6-.4-1.3-.4-1.9-.1l-17.1 9.3c-.6.3-1 1-1 1.7v21.3c0 .1 0 .2.1.3 0 .1 0 .2.1.2 0 .1.1.2.1.3 0 .1.1.1.1.2.1.1.2.2.2.3l.1.1c.1.1.3.2.4.3l14.6 8.6L6.3 161h-.1l-.2.2v.1c-.1.1-.1.1-.1.2-.1.1-.1.1-.1.2v.1c0 .1-.1.1-.1.1-.1.1-.1.1-.1.2s-.1.1-.1.2-.1.1-.1.2v.6c0 .1 0 .1.1.2 0 .1.1.1.1.2s.1.1.1.2c.1.1.1.1.1.2s.1.1.1.1v.1l.3.3.1.1c.1.1.2.1.2.2l17.2 10.4c.1.1.2.1.3.1.1 0 .1.1.2.1.2.1.3.1.4.1h.2c.2 0 .3 0 .5-.1.1 0 .1-.1.2-.1.1-.1.2-.1.3-.2L43 164.8c.6-.4.9-.9.9-1.6l-.3-22.2c0 .1 0 0 0 0M9.2 120.9l13.4-7.2v16.8l-13.4 7.4v-17zm1.9 20.3l13.4-7.4 13.4 7.4-13.4 7.9-13.4-7.9zm11.5 13.6v14.8l-11.8-7 11.8-7.8zm17.2 6.9l-13.4 8v-17.3l13.4-8v17.3z"/></svg>